<svg xmlns="http://www.w3.org/2000/svg" xmlns:xlink="http://www.w3.org/1999/xlink" width="500" zoomAndPan="magnify" viewBox="0 0 375 374.999991" height="500" preserveAspectRatio="xMidYMid meet" version="1.0"><defs><g/><clipPath id="d7067672ed"><path d="M 43 143 L 87.601562 143 L 87.601562 232 L 43 232 Z M 43 143 " clip-rule="nonzero"/></clipPath></defs><rect x="-37.5" width="450" fill="#ffffff" y="-37.499999" height="449.999989" fill-opacity="1"/><rect x="-37.5" width="450" fill="#1a5b92" y="-37.499999" height="449.999989" fill-opacity="1"/><g fill="#ffffff" fill-opacity="1"><g transform="translate(103.079182, 204.974659)"><g><path d="M 24.171875 -9.171875 C 24.171875 -7.128906 23.660156 -5.390625 22.640625 -3.953125 C 21.628906 -2.515625 20.210938 -1.414062 18.390625 -0.65625 C 16.566406 0.09375 14.421875 0.46875 11.953125 0.46875 C 10.648438 0.46875 9.414062 0.40625 8.25 0.28125 C 7.09375 0.15625 6.023438 -0.0195312 5.046875 -0.25 C 4.066406 -0.488281 3.207031 -0.78125 2.46875 -1.125 L 2.46875 -4.96875 C 3.65625 -4.488281 5.097656 -4.039062 6.796875 -3.625 C 8.492188 -3.207031 10.269531 -3 12.125 -3 C 13.851562 -3 15.3125 -3.226562 16.5 -3.6875 C 17.695312 -4.15625 18.601562 -4.820312 19.21875 -5.6875 C 19.84375 -6.5625 20.15625 -7.613281 20.15625 -8.84375 C 20.15625 -10.019531 19.894531 -11.003906 19.375 -11.796875 C 18.863281 -12.597656 18.003906 -13.320312 16.796875 -13.96875 C 15.597656 -14.625 13.960938 -15.320312 11.890625 -16.0625 C 10.421875 -16.582031 9.128906 -17.148438 8.015625 -17.765625 C 6.898438 -18.390625 5.960938 -19.09375 5.203125 -19.875 C 4.453125 -20.664062 3.882812 -21.578125 3.5 -22.609375 C 3.113281 -23.648438 2.921875 -24.835938 2.921875 -26.171875 C 2.921875 -28.015625 3.390625 -29.59375 4.328125 -30.90625 C 5.265625 -32.21875 6.5625 -33.222656 8.21875 -33.921875 C 9.875 -34.617188 11.78125 -34.96875 13.9375 -34.96875 C 15.78125 -34.96875 17.484375 -34.796875 19.046875 -34.453125 C 20.609375 -34.109375 22.039062 -33.644531 23.34375 -33.0625 L 22.09375 -29.625 C 20.851562 -30.132812 19.535156 -30.5625 18.140625 -30.90625 C 16.753906 -31.257812 15.320312 -31.4375 13.84375 -31.4375 C 12.363281 -31.4375 11.113281 -31.21875 10.09375 -30.78125 C 9.082031 -30.351562 8.3125 -29.742188 7.78125 -28.953125 C 7.25 -28.171875 6.984375 -27.238281 6.984375 -26.15625 C 6.984375 -24.945312 7.238281 -23.941406 7.75 -23.140625 C 8.257812 -22.335938 9.078125 -21.625 10.203125 -21 C 11.328125 -20.375 12.816406 -19.722656 14.671875 -19.046875 C 16.691406 -18.316406 18.410156 -17.535156 19.828125 -16.703125 C 21.242188 -15.878906 22.320312 -14.875 23.0625 -13.6875 C 23.800781 -12.5 24.171875 -10.992188 24.171875 -9.171875 Z M 24.171875 -9.171875 "/></g></g></g><g fill="#ffffff" fill-opacity="1"><g transform="translate(129.561921, 204.974659)"><g><path d="M 4.71875 0 L 4.71875 -34.484375 L 8.71875 -34.484375 L 8.71875 0 Z M 4.71875 0 "/></g></g></g><g fill="#ffffff" fill-opacity="1"><g transform="translate(143.050903, 204.974659)"><g><path d="M 32.09375 -17.5625 C 32.09375 -13.6875 31.382812 -10.445312 29.96875 -7.84375 C 28.550781 -5.238281 26.503906 -3.28125 23.828125 -1.96875 C 21.148438 -0.65625 17.898438 0 14.078125 0 L 4.71875 0 L 4.71875 -34.484375 L 15.109375 -34.484375 C 18.617188 -34.484375 21.640625 -33.84375 24.171875 -32.5625 C 26.703125 -31.28125 28.65625 -29.382812 30.03125 -26.875 C 31.40625 -24.363281 32.09375 -21.257812 32.09375 -17.5625 Z M 27.875 -17.421875 C 27.875 -20.523438 27.359375 -23.082031 26.328125 -25.09375 C 25.296875 -27.101562 23.785156 -28.597656 21.796875 -29.578125 C 19.804688 -30.566406 17.375 -31.0625 14.5 -31.0625 L 8.71875 -31.0625 L 8.71875 -3.4375 L 13.609375 -3.4375 C 18.359375 -3.4375 21.921875 -4.609375 24.296875 -6.953125 C 26.679688 -9.296875 27.875 -12.785156 27.875 -17.421875 Z M 27.875 -17.421875 "/></g></g></g><g fill="#ffffff" fill-opacity="1"><g transform="translate(178.093958, 204.974659)"><g><path d="M 23.90625 0 L 4.71875 0 L 4.71875 -34.484375 L 23.90625 -34.484375 L 23.90625 -30.9375 L 8.71875 -30.9375 L 8.71875 -19.78125 L 23.046875 -19.78125 L 23.046875 -16.296875 L 8.71875 -16.296875 L 8.71875 -3.53125 L 23.90625 -3.53125 Z M 23.90625 0 "/></g></g></g><g fill="#ffffff" fill-opacity="1"><g transform="translate(204.930429, 204.974659)"><g><path d="M 24.171875 -9.171875 C 24.171875 -7.128906 23.660156 -5.390625 22.640625 -3.953125 C 21.628906 -2.515625 20.210938 -1.414062 18.390625 -0.65625 C 16.566406 0.09375 14.421875 0.46875 11.953125 0.46875 C 10.648438 0.46875 9.414062 0.40625 8.25 0.28125 C 7.09375 0.15625 6.023438 -0.0195312 5.046875 -0.25 C 4.066406 -0.488281 3.207031 -0.78125 2.46875 -1.125 L 2.46875 -4.96875 C 3.65625 -4.488281 5.097656 -4.039062 6.796875 -3.625 C 8.492188 -3.207031 10.269531 -3 12.125 -3 C 13.851562 -3 15.3125 -3.226562 16.5 -3.6875 C 17.695312 -4.15625 18.601562 -4.820312 19.21875 -5.6875 C 19.84375 -6.5625 20.15625 -7.613281 20.15625 -8.84375 C 20.15625 -10.019531 19.894531 -11.003906 19.375 -11.796875 C 18.863281 -12.597656 18.003906 -13.320312 16.796875 -13.96875 C 15.597656 -14.625 13.960938 -15.320312 11.890625 -16.0625 C 10.421875 -16.582031 9.128906 -17.148438 8.015625 -17.765625 C 6.898438 -18.390625 5.960938 -19.09375 5.203125 -19.875 C 4.453125 -20.664062 3.882812 -21.578125 3.5 -22.609375 C 3.113281 -23.648438 2.921875 -24.835938 2.921875 -26.171875 C 2.921875 -28.015625 3.390625 -29.59375 4.328125 -30.90625 C 5.265625 -32.21875 6.5625 -33.222656 8.21875 -33.921875 C 9.875 -34.617188 11.78125 -34.96875 13.9375 -34.96875 C 15.78125 -34.96875 17.484375 -34.796875 19.046875 -34.453125 C 20.609375 -34.109375 22.039062 -33.644531 23.34375 -33.0625 L 22.09375 -29.625 C 20.851562 -30.132812 19.535156 -30.5625 18.140625 -30.90625 C 16.753906 -31.257812 15.320312 -31.4375 13.84375 -31.4375 C 12.363281 -31.4375 11.113281 -31.21875 10.09375 -30.78125 C 9.082031 -30.351562 8.3125 -29.742188 7.78125 -28.953125 C 7.25 -28.171875 6.984375 -27.238281 6.984375 -26.15625 C 6.984375 -24.945312 7.238281 -23.941406 7.75 -23.140625 C 8.257812 -22.335938 9.078125 -21.625 10.203125 -21 C 11.328125 -20.375 12.816406 -19.722656 14.671875 -19.046875 C 16.691406 -18.316406 18.410156 -17.535156 19.828125 -16.703125 C 21.242188 -15.878906 22.320312 -14.875 23.0625 -13.6875 C 23.800781 -12.5 24.171875 -10.992188 24.171875 -9.171875 Z M 24.171875 -9.171875 "/></g></g></g><g fill="#ffffff" fill-opacity="1"><g transform="translate(231.413168, 204.974659)"><g><path d="M 13.515625 -17.1875 L 22.6875 -34.484375 L 27 -34.484375 L 15.515625 -13.375 L 15.515625 0 L 11.515625 0 L 11.515625 -13.1875 L 0 -34.484375 L 4.390625 -34.484375 Z M 13.515625 -17.1875 "/></g></g></g><g fill="#ffffff" fill-opacity="1"><g transform="translate(258.414715, 204.974659)"><g><path d="M 31.671875 0 L 27.046875 0 L 8.25 -28.953125 L 8.0625 -28.953125 C 8.113281 -28.179688 8.171875 -27.304688 8.234375 -26.328125 C 8.296875 -25.347656 8.34375 -24.300781 8.375 -23.1875 C 8.414062 -22.082031 8.4375 -20.957031 8.4375 -19.8125 L 8.4375 0 L 4.71875 0 L 4.71875 -34.484375 L 9.3125 -34.484375 L 28.046875 -5.609375 L 28.203125 -5.609375 C 28.171875 -6.160156 28.128906 -6.941406 28.078125 -7.953125 C 28.035156 -8.972656 27.992188 -10.066406 27.953125 -11.234375 C 27.910156 -12.410156 27.890625 -13.5 27.890625 -14.5 L 27.890625 -34.484375 L 31.671875 -34.484375 Z M 31.671875 0 "/></g></g></g><g fill="#ffffff" fill-opacity="1"><g transform="translate(294.778369, 204.974659)"><g><path d="M 19.453125 -31.4375 C 17.554688 -31.4375 15.847656 -31.109375 14.328125 -30.453125 C 12.804688 -29.804688 11.515625 -28.863281 10.453125 -27.625 C 9.390625 -26.394531 8.578125 -24.90625 8.015625 -23.15625 C 7.453125 -21.414062 7.171875 -19.453125 7.171875 -17.265625 C 7.171875 -14.367188 7.617188 -11.851562 8.515625 -9.71875 C 9.421875 -7.59375 10.773438 -5.945312 12.578125 -4.78125 C 14.378906 -3.625 16.632812 -3.046875 19.34375 -3.046875 C 20.882812 -3.046875 22.332031 -3.175781 23.6875 -3.4375 C 25.050781 -3.695312 26.375 -4.019531 27.65625 -4.40625 L 27.65625 -0.921875 C 26.40625 -0.453125 25.085938 -0.101562 23.703125 0.125 C 22.316406 0.351562 20.671875 0.46875 18.765625 0.46875 C 15.265625 0.46875 12.335938 -0.253906 9.984375 -1.703125 C 7.640625 -3.160156 5.878906 -5.21875 4.703125 -7.875 C 3.535156 -10.53125 2.953125 -13.664062 2.953125 -17.28125 C 2.953125 -19.894531 3.316406 -22.28125 4.046875 -24.4375 C 4.773438 -26.601562 5.84375 -28.472656 7.25 -30.046875 C 8.65625 -31.617188 10.382812 -32.832031 12.4375 -33.6875 C 14.488281 -34.539062 16.84375 -34.96875 19.5 -34.96875 C 21.25 -34.96875 22.929688 -34.796875 24.546875 -34.453125 C 26.171875 -34.109375 27.632812 -33.613281 28.9375 -32.96875 L 27.328125 -29.578125 C 26.234375 -30.078125 25.03125 -30.507812 23.71875 -30.875 C 22.40625 -31.25 20.984375 -31.4375 19.453125 -31.4375 Z M 19.453125 -31.4375 "/></g></g></g><g clip-path="url(#d7067672ed)"><path fill="#ffffff" d="M 78.441406 171.253906 C 77.285156 158.648438 73.242188 157.652344 70.566406 157 C 69.992188 156.859375 69.523438 156.742188 69.199219 156.539062 C 69.117188 156.011719 69.113281 155.257812 69.109375 154.453125 C 69.105469 152.445312 69.101562 150.371094 67.941406 149.460938 C 62.375 144.765625 57.277344 142.9375 52.78125 144.035156 C 46.78125 145.496094 44.195312 151.601562 44.089844 151.859375 C 44.046875 151.957031 44.027344 152.058594 44.027344 152.164062 L 44.027344 171.625 C 44.027344 171.773438 44.070312 171.921875 44.148438 172.046875 C 45.238281 173.796875 46.769531 176.699219 46.75 177.679688 C 46.746094 177.777344 46.71875 178.011719 46.539062 178.476562 C 45.898438 180.152344 44.183594 182.660156 44.167969 182.6875 C 44.078125 182.816406 44.027344 182.972656 44.027344 183.132812 C 44.027344 183.285156 43.960938 198.511719 44.027344 207 C 44.027344 207.117188 44.054688 207.234375 44.105469 207.339844 C 44.371094 207.890625 44.941406 208.382812 45.542969 208.90625 C 45.664062 209.007812 45.785156 209.113281 45.902344 209.214844 C 46.644531 209.878906 46.742188 210.125 46.75 210.191406 C 46.75 210.191406 46.75 210.21875 46.738281 210.289062 C 46.738281 210.292969 46.738281 210.292969 46.734375 210.292969 C 46.570312 211.164062 45.113281 213.023438 44.234375 213.992188 C 44.101562 214.140625 44.027344 214.332031 44.027344 214.527344 L 44.027344 223.738281 C 44.027344 223.886719 44.070312 224.035156 44.152344 224.164062 C 44.347656 224.472656 48.75 231.304688 55.394531 231.300781 C 55.8125 231.300781 56.238281 231.277344 56.671875 231.21875 C 66.542969 229.613281 67.535156 226.355469 67.761719 222.574219 C 67.824219 221.550781 67.878906 220.660156 68.347656 219.992188 C 68.78125 219.800781 69.234375 219.59375 69.714844 219.363281 C 79.128906 214.851562 78.683594 210.125 78.328125 206.324219 C 78.210938 205.078125 78.105469 203.898438 78.375 202.867188 C 78.753906 202.585938 79.082031 202.28125 79.363281 201.957031 C 82.65625 198.960938 87.023438 194.238281 87.101562 187.757812 C 87.167969 182.421875 84.253906 176.871094 78.441406 171.253906 Z M 78.265625 200.804688 C 77.890625 201.144531 77.535156 201.460938 77.203125 201.75 C 75.753906 202.726562 73.765625 203.0625 71.746094 202.671875 C 71.3125 202.585938 70.898438 202.871094 70.816406 203.300781 C 70.730469 203.734375 71.011719 204.152344 71.445312 204.234375 C 72.09375 204.359375 72.742188 204.421875 73.378906 204.421875 C 74.527344 204.421875 75.628906 204.21875 76.625 203.832031 C 76.578125 204.691406 76.65625 205.566406 76.742188 206.476562 C 77.082031 210.09375 77.429688 213.832031 69.234375 217.824219 C 67.679688 217.644531 66.085938 216.839844 64.824219 215.578125 C 64.511719 215.265625 64.007812 215.265625 63.699219 215.578125 C 63.386719 215.890625 63.386719 216.394531 63.699219 216.703125 C 64.703125 217.710938 65.902344 218.476562 67.152344 218.945312 C 66.332031 220.007812 66.25 221.261719 66.175781 222.480469 C 66.007812 225.25 65.835938 228.117188 56.441406 229.644531 C 50.703125 230.402344 46.390625 224.609375 45.621094 223.496094 L 45.621094 214.832031 C 46.089844 214.292969 47.171875 213.003906 47.816406 211.8125 C 48.46875 212.308594 49.203125 212.648438 49.988281 212.800781 C 50.039062 212.8125 50.089844 212.816406 50.140625 212.816406 C 50.511719 212.816406 50.847656 212.550781 50.917969 212.171875 C 51.003906 211.738281 50.722656 211.320312 50.289062 211.238281 C 49.570312 211.097656 48.902344 210.714844 48.339844 210.140625 C 48.335938 210.117188 48.339844 210.09375 48.339844 210.070312 C 48.273438 209.261719 47.59375 208.589844 46.957031 208.027344 C 46.835938 207.917969 46.710938 207.808594 46.585938 207.703125 C 46.234375 207.398438 45.808594 207.03125 45.617188 206.773438 C 45.554688 198.851562 45.609375 185.351562 45.617188 183.382812 C 46.015625 182.789062 47.148438 181.042969 47.8125 179.554688 L 53.265625 179.554688 C 53.703125 179.554688 54.058594 179.199219 54.058594 178.757812 C 54.058594 178.320312 53.703125 177.964844 53.265625 177.964844 L 48.320312 177.964844 C 48.332031 177.875 48.339844 177.792969 48.339844 177.710938 C 48.375 176.027344 46.289062 172.492188 45.621094 171.398438 L 45.621094 152.332031 C 46.015625 151.46875 48.394531 146.742188 53.15625 145.582031 C 57.128906 144.613281 61.757812 146.328125 66.9375 150.699219 C 67.511719 151.148438 67.515625 153.140625 67.515625 154.457031 C 67.519531 155.242188 67.527344 155.984375 67.605469 156.605469 L 64.835938 162.203125 C 64.640625 162.597656 64.804688 163.078125 65.195312 163.269531 C 65.3125 163.328125 65.429688 163.355469 65.550781 163.355469 C 65.84375 163.355469 66.125 163.191406 66.261719 162.910156 L 68.664062 158.058594 C 69.128906 158.285156 69.648438 158.414062 70.183594 158.542969 C 72.507812 159.113281 75.667969 159.890625 76.789062 170.691406 L 65.195312 170.691406 C 62.082031 167.964844 58.707031 169.609375 57.324219 170.90625 C 57.003906 171.210938 56.988281 171.714844 57.289062 172.03125 C 57.445312 172.199219 57.65625 172.285156 57.867188 172.285156 C 58.0625 172.285156 58.261719 172.210938 58.414062 172.066406 C 58.523438 171.964844 60.886719 169.792969 63.476562 171.378906 C 63.472656 171.417969 63.464844 171.453125 63.464844 171.488281 C 63.464844 171.929688 63.820312 172.285156 64.261719 172.285156 L 64.558594 172.285156 C 64.675781 172.40625 64.796875 172.523438 64.910156 172.660156 C 65.550781 173.65625 64.375 176.152344 63.433594 178.160156 C 62.628906 179.875 61.867188 181.492188 61.816406 182.757812 C 61.757812 184.21875 63.648438 187.328125 64.03125 187.9375 C 64.179688 188.179688 64.441406 188.3125 64.707031 188.3125 C 64.847656 188.3125 64.996094 188.273438 65.125 188.191406 C 65.5 187.957031 65.613281 187.46875 65.378906 187.09375 C 64.414062 185.542969 63.382812 183.464844 63.40625 182.820312 C 63.445312 181.875 64.171875 180.332031 64.871094 178.839844 C 65.992188 176.460938 67.136719 174.011719 66.484375 172.28125 L 77.214844 172.28125 C 82.777344 177.621094 85.570312 182.820312 85.511719 187.738281 C 85.4375 193.617188 81.339844 198.011719 78.265625 200.804688 Z M 78.265625 200.804688 " fill-opacity="1" fill-rule="nonzero"/></g><path fill="#ffffff" d="M 58.664062 154.695312 C 58.664062 154.253906 58.308594 153.898438 57.867188 153.898438 C 53.429688 153.898438 49.816406 156.75 49.816406 160.257812 C 49.816406 160.695312 50.175781 161.050781 50.613281 161.050781 C 51.054688 161.050781 51.410156 160.695312 51.410156 160.257812 C 51.410156 157.628906 54.308594 155.488281 57.867188 155.488281 C 58.308594 155.488281 58.664062 155.132812 58.664062 154.695312 Z M 58.664062 154.695312 " fill-opacity="1" fill-rule="nonzero"/><path fill="#ffffff" d="M 65.71875 199.769531 C 63.234375 199.769531 61.011719 200.667969 59.53125 202.066406 C 59.628906 200.0625 59.5 198.050781 58.566406 196.707031 C 58.554688 196.6875 58.542969 196.667969 58.527344 196.652344 C 57.265625 195.121094 55.816406 194.292969 54.222656 194.191406 C 51.683594 194.027344 49.765625 195.804688 49.6875 195.882812 C 49.367188 196.183594 49.351562 196.6875 49.652344 197.003906 C 49.953125 197.328125 50.457031 197.34375 50.777344 197.039062 C 50.792969 197.027344 52.300781 195.65625 54.121094 195.777344 C 55.25 195.851562 56.3125 196.476562 57.277344 197.636719 C 58.28125 199.128906 57.96875 202.167969 57.722656 204.609375 C 57.636719 205.433594 57.554688 206.214844 57.527344 206.894531 C 57.464844 208.539062 60.464844 210.105469 61.757812 210.699219 C 61.867188 210.75 61.980469 210.773438 62.089844 210.773438 C 62.390625 210.773438 62.679688 210.601562 62.8125 210.3125 C 63 209.914062 62.824219 209.441406 62.425781 209.253906 C 60.78125 208.496094 59.203125 207.390625 59.121094 206.957031 C 59.125 206.824219 59.132812 206.683594 59.144531 206.539062 C 59.214844 206.417969 59.261719 206.28125 59.261719 206.128906 C 59.261719 203.5 62.15625 201.363281 65.71875 201.363281 C 66.160156 201.363281 66.515625 201.007812 66.515625 200.566406 C 66.515625 200.128906 66.160156 199.769531 65.71875 199.769531 Z M 65.71875 199.769531 " fill-opacity="1" fill-rule="nonzero"/><path fill="#ffffff" d="M 73.957031 183.675781 C 73.648438 183.984375 73.648438 184.488281 73.957031 184.800781 C 75.816406 186.660156 75.28125 190.21875 72.761719 192.738281 C 72.449219 193.050781 72.449219 193.554688 72.761719 193.863281 C 72.917969 194.019531 73.121094 194.097656 73.324219 194.097656 C 73.527344 194.097656 73.730469 194.019531 73.886719 193.863281 C 77.027344 190.726562 77.5625 186.15625 75.085938 183.675781 C 74.773438 183.363281 74.269531 183.363281 73.957031 183.675781 Z M 73.957031 183.675781 " fill-opacity="1" fill-rule="nonzero"/><path fill="#ffffff" d="M 39.691406 179.144531 L 33.960938 179.144531 C 33.496094 179.144531 33.125 178.769531 33.125 178.308594 C 33.125 177.84375 33.496094 177.472656 33.960938 177.472656 L 39.15625 177.472656 C 39.148438 177.378906 39.136719 177.289062 39.136719 177.207031 C 39.097656 175.433594 41.289062 171.71875 41.996094 170.570312 L 41.996094 150.527344 C 41.574219 149.621094 39.058594 144.636719 34.058594 143.425781 C 29.886719 142.414062 25.023438 144.21875 19.613281 148.789062 C 18.980469 149.28125 18.976562 151.375 18.976562 152.757812 C 18.972656 153.585938 18.964844 154.363281 18.882812 155.019531 L 21.792969 160.90625 C 22 161.320312 21.828125 161.820312 21.414062 162.027344 C 21.296875 162.085938 21.167969 162.113281 21.042969 162.113281 C 20.734375 162.113281 20.441406 161.941406 20.292969 161.648438 L 17.769531 156.546875 C 17.28125 156.785156 16.734375 156.917969 16.167969 157.058594 C 13.726562 157.65625 10.40625 158.472656 9.230469 169.828125 L 21.414062 169.828125 C 24.691406 166.960938 28.238281 168.6875 29.691406 170.054688 C 30.027344 170.371094 30.046875 170.898438 29.726562 171.238281 C 29.5625 171.414062 29.339844 171.5 29.117188 171.5 C 28.914062 171.5 28.707031 171.425781 28.546875 171.273438 C 28.253906 171.003906 25.859375 168.921875 23.222656 170.550781 C 23.230469 170.585938 23.234375 170.625 23.234375 170.664062 C 23.234375 171.125 22.859375 171.5 22.398438 171.5 L 22.085938 171.5 C 21.960938 171.628906 21.832031 171.753906 21.714844 171.898438 C 21.042969 172.941406 22.277344 175.566406 23.269531 177.679688 C 24.117188 179.480469 24.914062 181.179688 24.96875 182.511719 C 25.027344 184.046875 23.039062 187.316406 22.640625 187.957031 C 22.484375 188.210938 22.210938 188.351562 21.929688 188.351562 C 21.78125 188.351562 21.625 188.308594 21.488281 188.222656 C 21.097656 187.976562 20.976562 187.464844 21.222656 187.070312 C 22.238281 185.4375 23.324219 183.253906 23.296875 182.578125 C 23.257812 181.585938 22.492188 179.960938 21.753906 178.390625 C 20.578125 175.890625 19.375 173.316406 20.058594 171.5 L 8.78125 171.5 C 2.933594 177.113281 -0.00390625 182.578125 0.0585938 187.746094 C 0.136719 193.925781 4.441406 198.546875 7.675781 201.480469 L 7.675781 201.484375 C 8.070312 201.839844 8.445312 202.171875 8.792969 202.476562 C 10.316406 203.503906 12.40625 203.855469 14.527344 203.445312 C 14.984375 203.355469 15.421875 203.65625 15.511719 204.109375 C 15.597656 204.5625 15.300781 205 14.847656 205.089844 C 14.164062 205.21875 13.480469 205.285156 12.8125 205.285156 C 11.609375 205.285156 10.449219 205.070312 9.402344 204.664062 C 9.449219 205.566406 9.367188 206.488281 9.277344 207.445312 C 8.921875 211.246094 8.554688 215.179688 17.167969 219.375 C 18.804688 219.1875 20.480469 218.339844 21.808594 217.015625 C 22.132812 216.6875 22.664062 216.6875 22.992188 217.015625 C 23.316406 217.339844 23.316406 217.871094 22.992188 218.195312 C 21.933594 219.253906 20.671875 220.0625 19.359375 220.554688 C 20.222656 221.667969 20.308594 222.988281 20.386719 224.269531 C 20.5625 227.183594 20.742188 230.195312 30.644531 231.804688 C 36.660156 232.597656 41.183594 226.511719 41.996094 225.335938 L 41.996094 216.226562 C 41.5 215.660156 40.363281 214.308594 39.683594 213.054688 C 38.996094 213.578125 38.226562 213.933594 37.402344 214.09375 C 37.351562 214.105469 37.296875 214.109375 37.242188 214.109375 C 36.851562 214.109375 36.5 213.832031 36.421875 213.433594 C 36.335938 212.976562 36.632812 212.539062 37.085938 212.453125 C 37.84375 212.304688 38.542969 211.898438 39.136719 211.296875 C 39.140625 211.273438 39.136719 211.25 39.136719 211.226562 C 39.207031 210.371094 39.921875 209.667969 40.585938 209.078125 C 40.71875 208.960938 40.847656 208.847656 40.980469 208.734375 C 41.347656 208.414062 41.792969 208.027344 41.996094 207.757812 C 42.0625 199.429688 42.003906 185.238281 41.996094 183.167969 C 41.582031 182.542969 40.390625 180.710938 39.691406 179.144531 Z M 15.4375 193.863281 C 15.28125 194.019531 15.078125 194.097656 14.875 194.097656 C 14.667969 194.097656 14.464844 194.019531 14.3125 193.863281 C 11.171875 190.726562 10.632812 186.15625 13.113281 183.675781 C 13.421875 183.363281 13.925781 183.363281 14.238281 183.675781 C 14.550781 183.984375 14.550781 184.488281 14.238281 184.800781 C 12.378906 186.660156 12.917969 190.21875 15.4375 192.738281 C 15.746094 193.050781 15.746094 193.550781 15.4375 193.863281 Z M 29.53125 154.695312 C 29.53125 154.253906 29.890625 153.898438 30.328125 153.898438 C 34.769531 153.898438 38.378906 156.75 38.378906 160.257812 C 38.378906 160.695312 38.023438 161.050781 37.582031 161.050781 C 37.144531 161.050781 36.789062 160.695312 36.789062 160.257812 C 36.789062 157.628906 33.890625 155.488281 30.328125 155.488281 C 29.890625 155.488281 29.53125 155.132812 29.53125 154.695312 Z M 37.496094 219.375 C 37.808594 219.066406 38.3125 219.066406 38.621094 219.375 C 38.933594 219.6875 38.933594 220.191406 38.621094 220.503906 C 37.128906 221.996094 35.265625 222.957031 33.382812 223.207031 C 33.058594 223.25 32.742188 223.269531 32.429688 223.269531 C 30.855469 223.269531 29.460938 222.726562 28.433594 221.699219 C 28.121094 221.386719 28.121094 220.882812 28.433594 220.574219 C 28.742188 220.261719 29.246094 220.261719 29.558594 220.574219 C 30.429688 221.445312 31.710938 221.820312 33.175781 221.628906 C 34.714844 221.425781 36.246094 220.625 37.496094 219.375 Z M 38.546875 197.003906 C 38.246094 197.328125 37.742188 197.34375 37.421875 197.042969 C 37.398438 197.019531 35.890625 195.652344 34.0625 195.78125 C 32.9375 195.855469 31.882812 196.480469 30.921875 197.636719 C 29.914062 199.128906 30.226562 202.167969 30.476562 204.609375 C 30.5625 205.433594 30.640625 206.21875 30.667969 206.894531 C 30.734375 208.539062 27.730469 210.105469 26.4375 210.699219 C 26.332031 210.75 26.21875 210.773438 26.105469 210.773438 C 25.804688 210.773438 25.519531 210.601562 25.382812 210.3125 C 25.199219 209.914062 25.371094 209.441406 25.773438 209.253906 C 27.417969 208.496094 28.992188 207.390625 29.078125 206.9375 C 29.074219 206.8125 29.066406 206.675781 29.054688 206.539062 C 28.980469 206.421875 28.9375 206.28125 28.9375 206.128906 C 28.9375 203.5 26.039062 201.363281 22.476562 201.363281 C 22.039062 201.363281 21.683594 201.007812 21.683594 200.566406 C 21.683594 200.128906 22.039062 199.773438 22.476562 199.773438 C 24.964844 199.773438 27.1875 200.667969 28.667969 202.066406 C 28.566406 200.0625 28.699219 198.050781 29.628906 196.707031 C 29.640625 196.6875 29.65625 196.667969 29.667969 196.652344 C 30.929688 195.121094 32.378906 194.292969 33.972656 194.191406 C 36.515625 194.03125 38.429688 195.804688 38.511719 195.882812 C 38.832031 196.183594 38.847656 196.6875 38.546875 197.003906 Z M 38.546875 197.003906 " fill-opacity="1" fill-rule="nonzero"/></svg>